<svg width="115" height="174" viewBox="0 0 115 174" fill="none" xmlns="http://www.w3.org/2000/svg">
<path d="M71.9 2.89999C71.9 2.89999 30 -9.20001 17.6 20.9C6 48.9 -2 64.7 4.7 80.3C11.4 95.9 -12.4 143.9 11.1 162.6C34.5 181.3 105.1 173 112.6 157.6C120 142.2 102.7 107.8 105.9 87.2C109.1 66.6 113 32.1 101.4 24.4C89.8 16.6 93.5 2.39999 71.9 2.89999Z" stroke="#FF8181" stroke-miterlimit="10"/>
<path d="M49 89.4C49 89.4 49.3 106.7 45.1 110.6C40.9 114.5 36.3 117.2 36.3 117.2C36.3 117.2 45.6 132.6 62.3 132C79 131.4 85.1 120.4 85.1 120.4C85.1 120.4 79.6 119.1 75.1 110.4C70.6 101.7 72.5 90.8 72.2 89.5C72 88.3 49 89.4 49 89.4Z" stroke="#FF8181" stroke-miterlimit="10"/>
<path d="M29.2 58.6C29.2 58.6 20.1 57.4 20.9 66.7C21.7 76 32.5 75.2 32.5 75.2C32.5 75.2 44.8 101.6 64.9 100C85.8 98.3 94.6 72.9 92.5 51.9C92.5 51.9 78.3 43.3 75.3 34.1C75.3 34.1 61 47.4 54.1 45.6C47.1 43.8 37.9 59.5 29.2 58.6Z" stroke="#FF8181" stroke-miterlimit="10"/>
<path d="M29.9 65.4C29.6 64 28.8 62.6 27.4 62.1C26.6 61.8 25.8 62 25.1 62.4C24.7 62.6 24.5 62.9 24.3 63.3C24.2 63.5 24.1 63.8 24.1 63.9C24.1 64 24.1 64.3 24.1 64.4C24.2 64.8 24.7 65.1 25 64.8C25.1 64.7 25.1 64.7 25.2 64.7C25.2 64.7 25.3 64.6 25.3 64.7C25.2 64.8 25.5 64.5 25.6 64.5C25.8 64.4 25.8 64.3 26 64.2C26 64.1 26 64 26.1 64C26 64.1 26.2 64 26.3 63.9H26.4H26.5C26.6 63.9 26.6 63.9 26.7 63.9L26.9 64C26.9 64 27 64 27 64.1C27.1 64.2 27.2 64.2 27.3 64.3C27.4 64.4 27.3 64.3 27.4 64.4C27.5 64.5 27.5 64.6 27.6 64.7C27.6 64.7 27.6 64.8 27.7 64.8C27.7 64.9 27.8 64.9 27.8 65C27.6 65.1 27.3 65.2 27.2 65.4C26.3 66.6 25 68.6 26 70.1C27 71.6 29.1 71 29.9 69.6C30.2 68.9 30.3 68.2 30.3 67.4C30.1 66.8 30.1 66.1 29.9 65.4Z" fill="#FF8181"/>
<path d="M58.7 51C58.7 50.9 58.6 50.8 58.5 50.8C58.4 50.7 58.4 50.5 58.3 50.4C58.2 50.3 58.1 50.2 58 50.1C58 50 58 50 58 50C57.7 49.7 57.3 49.4 56.9 49.3C56.2 49 55.5 48.8 54.7 48.9C53.3 48.9 51.4 49.6 51.1 51.2C51 51.8 51.5 52.5 52.2 52.4C52.5 52.3 52.8 52.3 53 52.1C53.2 52 53.4 51.9 53.6 51.8C53.5 51.8 53.4 51.9 53.5 51.8C53.6 51.8 53.6 51.7 53.7 51.7C53.8 51.7 53.9 51.6 54.1 51.6H54.2C54.3 51.6 54.5 51.6 54.6 51.6C54.7 51.6 54.7 51.6 54.8 51.6C54.9 51.6 55 51.6 55.1 51.6C55.2 51.6 55.2 51.6 55.3 51.6C55.3 51.6 55.3 51.6 55.4 51.6C55.5 51.6 55.5 51.7 55.6 51.7C55.7 51.8 55.8 51.8 55.9 51.9C56.7 52.3 58 52.6 58.5 51.6L58.6 51.5C58.7 51.4 58.8 51.2 58.7 51Z" fill="#FF8181"/>
<path d="M81.7 49.9C81 49.6 80.4 49.5 79.6 49.5C79 49.5 78.4 49.6 77.9 49.8C77.6 49.9 77.2 50.1 77 50.3C76.6 50.6 76.3 50.9 76.2 51.5C76.1 51.8 76.3 52.2 76.5 52.5C76.8 52.8 77.1 52.9 77.4 52.9C77.9 52.9 78.4 52.6 78.8 52.5H78.9C79 52.5 79.1 52.5 79.1 52.5C79.2 52.5 79.3 52.5 79.4 52.5H79.5C79.7 52.5 79.9 52.5 80.1 52.6C80.1 52.6 80.1 52.6 80.2 52.6H80.3H80.4C80.4 52.6 80.4 52.6 80.3 52.6H80.4C80.6 52.7 80.8 52.8 81 52.9C81.1 53 81.3 53.1 81.4 53.1C81.6 53.2 81.7 53.2 81.9 53.3C82.9 53.5 83.7 52.5 83.3 51.6C83.2 50.7 82.5 50.2 81.7 49.9Z" fill="#FF8181"/>
<path d="M82.2 61.6C82.2 61.5 82.2 61.4 82.2 61.2C82.2 61 82.2 60.8 82.1 60.6C82.1 60.6 82.1 60.6 82.1 60.5C82.1 60 82 59.4 81.9 58.9C81.9 58.6 81.8 58.4 81.7 58.2C81.6 58 81.5 57.8 81.3 57.6C80.9 57.3 80.4 57.1 79.9 57.1C79.4 57.2 78.9 57.4 78.6 57.8C78.3 58.2 78.1 58.7 78.1 59.2C78.2 60 78.2 60.8 78.2 61.6C78.2 61.9 78.1 62.1 78.2 62.4L78.3 62.9C78.4 63.1 78.5 63.4 78.7 63.5C79 63.8 79.3 64 79.8 64.1C80.1 64.1 80.5 64.1 80.8 64C80.9 64 81 63.9 81.1 63.8C81.2 63.8 81.3 63.7 81.4 63.6C81.5 63.5 81.6 63.5 81.7 63.3C81.8 63.2 81.9 63 82 62.9C82.1 62.6 82.2 62.3 82.2 62V62.3C82.2 62.1 82.2 61.8 82.2 61.6Z" fill="#FF8181"/>
<path d="M56.7 61.5C56.7 61.4 56.7 61.3 56.7 61.1C56.7 60.9 56.7 60.7 56.6 60.5C56.6 60.5 56.6 60.5 56.6 60.4C56.6 59.9 56.5 59.3 56.4 58.8C56.4 58.5 56.3 58.3 56.2 58.1C56.1 57.9 56 57.7 55.8 57.5C55.4 57.2 54.9 57 54.4 57C53.9 57.1 53.4 57.3 53.1 57.7C52.8 58.1 52.6 58.6 52.6 59.1C52.7 59.9 52.7 60.7 52.7 61.5C52.7 61.8 52.6 62 52.7 62.3L52.8 62.8C52.9 63 53 63.3 53.2 63.4C53.5 63.7 53.8 63.9 54.3 64C54.6 64 55 64 55.3 63.9C55.4 63.9 55.5 63.8 55.6 63.7C55.7 63.7 55.8 63.6 55.9 63.5C56 63.4 56.1 63.4 56.2 63.2C56.3 63.1 56.4 62.9 56.5 62.8C56.6 62.5 56.7 62.2 56.7 61.9V62.2C56.7 62 56.7 61.7 56.7 61.5Z" fill="#FF8181"/>
<path d="M35.9 66.6C35.7 65.4 35.6 64.2 35.4 63.1C35.2 61.9 34.9 60.9 34.3 59.8C33.8 58.9 33.1 57.8 32.3 57.1C31.5 56.4 30.1 57.3 30.7 58.3C31.2 59.1 31.9 59.8 32.4 60.6C32.9 61.5 33.2 62.4 33.3 63.4C33.5 64.4 33.6 65.4 33.8 66.4C34 67.4 34 68.4 34.2 69.4C34.3 69.9 35.1 70.1 35.4 69.7C36.1 68.9 36.1 67.8 35.9 66.6Z" fill="#FF8181"/>
<path d="M34 73.6C33.8 73.9 33.5 74.2 33.3 74.4C33.1 74.7 32.8 74.9 32.5 75.2C32.4 75.3 32.4 75.3 32.3 75.4L32.2 75.5C32 75.6 31.9 75.7 31.7 75.8C31.3 76 30.9 76.2 30.7 76.6C30.7 76.7 30.6 76.7 30.6 76.7C30.3 76.9 30.5 77.4 30.8 77.5C30.9 77.5 30.9 77.6 31 77.6C31.3 77.8 31.7 77.7 32 77.7C32.2 77.6 32.5 77.5 32.7 77.4C33.1 77.2 33.5 76.9 33.8 76.5C34.1 76.2 34.4 75.8 34.6 75.4C34.8 75 34.9 74.5 34.9 74C34.9 73.6 34.3 73.3 34 73.6Z" fill="#FF8181"/>
<path d="M32.6 70.4C33.1 65.2 42.3 69.7 50.2 70C58.1 70.3 65.2 66.2 69.9 66.5C74.6 66.8 81.4 73.3 88.7 73.7C93.2 73.9 88.5 96.7 70 100C53 103 31 86 32.6 70.4Z" fill="#FF8181"/>
<path d="M77.2 74.2C75.4 73.9 73.7 74.5 71.9 74.8C69.9 75.1 67.9 75.2 65.9 75.2C63.9 75.2 61.8 75 59.8 74.6C58.9 74.4 58 74.2 57.1 74C56.4 73.9 55.6 73.5 54.9 73.9C54.8 73.9 54.8 74 54.8 74.1C55 74.8 55.8 75.1 56.5 75.4C57.5 75.8 58.5 76.2 59.5 76.5C61.6 77.1 63.7 77.5 65.9 77.7C68 77.9 70.2 77.8 72.3 77.6C74 77.4 77 77.4 77.8 75.6C78 75.1 77.9 74.3 77.2 74.2Z" fill="#F15D5D"/>
<path d="M84.1 84.4C84 84.5 83.3 84.6 83.1 84.7C82.4 84.9 81.8 85.1 81.1 85.4C79.6 86 78.2 86.4 76.6 86.8C73.6 87.6 70.5 88 67.4 88C64.4 88 61.4 87.7 58.4 87.1C56.9 86.8 55.4 86.4 53.9 85.9C52.7 85.6 51.2 84.7 50 85C49.7 85.1 49.7 85.3 49.8 85.6C50.4 86.8 52.4 87.4 53.6 87.9C55.1 88.5 56.7 89 58.3 89.4C61.7 90.2 65.2 90.5 68.6 90.4C72 90.3 75.4 89.8 78.7 88.9C80.8 88.3 85.4 87.5 85 84.7C84.9 84.3 84.5 84.1 84.1 84.4Z" fill="#F15D5D"/>
</svg>
